<svg xmlns="http://www.w3.org/2000/svg" xml:space="preserve" width="2000" height="1500" data-id="lg_PqPSVL9juLwFAG0wIr" data-version="1" viewBox="0 0 2000 1500"><path fill="#354ead" stroke="transparent" d="M0 0h2000v1500H0z"/><g data-padding="20"><g transform="translate(-1667.694 -1267.193)scale(2.59754)"><path fill="none" stroke="#fff9ef" stroke-width="5" d="M789.495 737.58a39 39 0 1 0 0 78 39 39 0 1 0 0-78Z" paint-order="stroke" vector-effect="non-scaling-stroke"/><rect width="25.635" height="54.432" x="1211.913" y="530.946" fill="#354ead" rx="0" ry="0" transform="rotate(20 -112.266 229.255)scale(.78)" vector-effect="non-scaling-stroke"/><path fill="#fff9ef" d="M818.565 794.471a2.918 2.918 0 1 0 0 5.836 2.918 2.918 0 1 0 0-5.836m5.835-14.04a2.918 2.918 0 1 0 0 5.836 2.918 2.918 0 1 0 0-5.836" vector-effect="non-scaling-stroke"/><rect width="472.752" height="63.28" x="535.557" y="726.957" fill="none" rx="0" ry="0" transform="matrix(.97 0 0 .97 327.186 40.104)"/><path fill="#fff9ef" d="M863.735 793.006h-1.038q-2.765 0-4.996-1.388-2.23-1.387-3.472-3.744-1.252-2.367-1.252-5.412V756.34q0-1.087.68-1.795t1.765-.708 1.794.708q.7.708.7 1.795v26.122q0 2.444 1.357 4.025 1.358 1.572 3.424 1.572h1.688q.921 0 1.542.708.63.708.63 1.794t-.785 1.766q-.796.68-2.037.68m-.602-24.339h-13.095q-.97 0-1.63-.6-.65-.593-.65-1.514 0-.98.65-1.58.66-.593 1.63-.593h13.095q.98 0 1.63.592.65.6.65 1.58 0 .922-.65 1.514-.65.601-1.63.601m22.882 24.552q-4.073 0-7.284-1.95-3.2-1.96-5.053-5.383-1.844-3.424-1.844-7.712 0-4.345 1.98-7.74 1.988-3.395 5.383-5.374 3.395-1.989 7.634-1.989 4.287 0 7.653 1.99 3.366 1.978 5.354 5.402 1.98 3.424 2.037 7.711l-1.959.485q0 4.132-1.843 7.45-1.853 3.307-4.976 5.21-3.123 1.9-7.08 1.9m.814-4.452q2.93 0 5.21-1.387t3.617-3.803q1.33-2.415 1.33-5.403 0-3.046-1.33-5.46-1.339-2.416-3.618-3.803t-5.21-1.387q-2.832 0-5.16 1.387-2.337 1.387-3.666 3.802-1.339 2.415-1.339 5.461 0 2.988 1.34 5.403 1.328 2.415 3.665 3.803 2.328 1.387 5.16 1.387m12.494 4.287q-1.086 0-1.794-.698-.708-.709-.708-1.795v-8.69l1.028-5.22 4.025 1.523v12.387q0 1.086-.737 1.795-.727.698-1.814.698m23.406.233q-3.802 0-6.79-1.6-2.987-1.61-4.724-4.705-1.736-3.094-1.736-7.547V765.75q0-1.038.728-1.766.737-.737 1.765-.737 1.086 0 1.824.737.737.728.737 1.766v13.686q0 3.153 1.193 5.21 1.193 2.066 3.23 3.074 2.037 1 4.588 1 2.503 0 4.433-.97 1.92-.98 3.094-2.639 1.164-1.659 1.164-3.725h3.26q-.107 3.376-1.766 6.092t-4.53 4.258q-2.88 1.552-6.47 1.552m12.01-.272q-1.087 0-1.796-.708t-.708-1.794V765.75q0-1.087.708-1.795t1.795-.708 1.795.708q.698.708.698 1.795v24.764q0 1.086-.699 1.794-.708.708-1.794.708m38.227 12.698q-1.086 0-1.794-.709-.699-.698-.699-1.784v-15.21q-1.852 2.385-4.646 3.801-2.803 1.407-6.169 1.407-4.074 0-7.275-1.95-3.21-1.96-5.054-5.383t-1.843-7.712q0-4.287 1.95-7.71 1.96-3.425 5.384-5.404 3.414-1.989 7.711-1.989 4.18 0 7.576 1.96 3.395 1.95 5.374 5.373 1.988 3.425 2.037 7.663v25.153q0 1.086-.699 1.784-.708.708-1.853.708m-12.493-16.945q2.94 0 5.218-1.387t3.61-3.803q1.328-2.415 1.328-5.403 0-3.046-1.33-5.46-1.328-2.416-3.608-3.803t-5.218-1.387q-2.823 0-5.16 1.387t-3.667 3.802-1.33 5.461q0 2.988 1.33 5.403t3.666 3.803q2.338 1.387 5.16 1.387m38.626 4.452q-4.51 0-7.964-1.93-3.443-1.92-5.402-5.316-1.95-3.395-1.95-7.799 0-4.452 1.843-7.847t5.102-5.325 7.556-1.93q4.181 0 7.227 1.871 3.036 1.882 4.666 5.16 1.63 3.29 1.63 7.586 0 .922-.622 1.543-.63.63-1.658.63h-22.33v-4.025h22.388l-2.23 1.58q-.059-2.88-1.146-5.16-1.086-2.289-3.094-3.589t-4.83-1.3q-3.095 0-5.355 1.407-2.25 1.416-3.444 3.86-1.202 2.445-1.202 5.54t1.387 5.51q1.387 2.424 3.802 3.83 2.415 1.416 5.626 1.416 1.736 0 3.61-.65 1.871-.659 2.957-1.522.766-.602 1.63-.63.873-.02 1.523.523.814.757.873 1.65.048.901-.767 1.551-1.843 1.465-4.588 2.415t-5.238.95m32.485 0q-4.51 0-7.963-1.93-3.444-1.92-5.403-5.315-1.96-3.395-1.96-7.799 0-4.452 1.853-7.847 1.843-3.395 5.102-5.325t7.557-1.93q4.18 0 7.216 1.871 3.046 1.882 4.676 5.16 1.63 3.29 1.63 7.586 0 .922-.62 1.543-.63.63-1.66.63h-22.33v-4.025h22.378l-2.22 1.58q-.059-2.88-1.145-5.16-1.087-2.289-3.095-3.589t-4.83-1.3q-3.104 0-5.355 1.407-2.25 1.416-3.453 3.86-1.193 2.445-1.193 5.54t1.387 5.51q1.387 2.424 3.802 3.83 2.416 1.416 5.626 1.416 1.737 0 3.61-.65 1.871-.659 2.957-1.522.767-.602 1.63-.63.873-.02 1.523.523.815.757.873 1.65.048.901-.766 1.551-1.843 1.465-4.589 2.415-2.745.95-5.238.95m24.726-18.68h-2.667q.106-3.318 1.716-5.927 1.601-2.6 4.26-4.122 2.666-1.523 5.867-1.523 2.988 0 4.482.921t1.115 2.338q-.165.815-.65 1.164-.494.36-1.144.388-.65.02-1.417-.087-3.307-.544-5.917.164t-4.132 2.445q-1.513 1.736-1.513 4.24m-2.503 18.468q-1.144 0-1.794-.63-.65-.62-.65-1.815V765.74q0-1.145.65-1.795t1.794-.65q1.252 0 1.873.621.63.621.63 1.824v24.822q0 1.135-.63 1.795-.62.65-1.873.65m51.924.213q-4.074 0-7.284-1.95-3.2-1.96-5.054-5.383-1.843-3.424-1.843-7.712 0-4.345 1.98-7.74 1.987-3.395 5.382-5.374 3.395-1.989 7.634-1.989 4.288 0 7.653 1.99 3.366 1.978 5.355 5.402 1.98 3.424 2.037 7.711l-1.96.485q0 4.132-1.843 7.45-1.852 3.307-4.976 5.21-3.123 1.9-7.08 1.9m.814-4.452q2.93 0 5.21-1.387t3.617-3.803q1.33-2.415 1.33-5.403 0-3.046-1.33-5.46-1.339-2.416-3.618-3.803t-5.209-1.387q-2.832 0-5.16 1.387-2.338 1.387-3.667 3.802-1.339 2.415-1.339 5.461 0 2.988 1.34 5.403 1.328 2.415 3.666 3.803 2.328 1.387 5.16 1.387m12.494 4.287q-1.087 0-1.795-.698-.708-.709-.708-1.795v-8.69l1.028-5.22 4.026 1.523v12.387q0 1.086-.737 1.795-.728.698-1.814.698m13.25-11.349q-1.087 0-1.795-.737-.708-.728-.708-1.814V753.08q0-1.144.708-1.823t1.795-.68q1.144 0 1.823.68t.68 1.823v26.074q0 1.086-.68 1.814-.679.737-1.823.737m22.756 11.35q-1.086 0-1.814-.729-.737-.737-.737-1.765v-13.686q0-3.21-1.193-5.247t-3.2-3.036q-2.019-1.01-4.618-1.01-2.445 0-4.404.98t-3.124 2.61-1.164 3.744h-3.259q.05-3.424 1.737-6.11 1.678-2.688 4.56-4.24 2.88-1.542 6.47-1.542 3.801 0 6.79 1.6t4.722 4.695q1.737 3.094 1.737 7.556v13.687q0 1.028-.738 1.765-.727.728-1.765.728m-22.756 0q-1.086 0-1.795-.698-.708-.709-.708-1.795v-24.774q0-1.135.708-1.814t1.795-.679q1.144 0 1.823.68t.68 1.813v24.774q0 1.086-.68 1.795-.679.698-1.823.698m73.933 0q-1.086 0-1.794-.698-.708-.709-.708-1.795v-15.588q0-3.589-1.824-5.49-1.814-1.9-4.695-1.9-3.046 0-4.966 2.094-1.93 2.085-1.93 5.403h-4.24q.06-3.59 1.572-6.305 1.523-2.716 4.24-4.239 2.715-1.513 6.14-1.513 3.152 0 5.567 1.406 2.415 1.417 3.773 4.103t1.358 6.441v15.588q0 1.087-.679 1.795-.679.698-1.814.698m-36.937 0q-1.087 0-1.795-.698-.708-.708-.708-1.795v-24.716q0-1.144.708-1.823t1.795-.68q1.135 0 1.814.68.68.68.68 1.824v24.715q0 1.086-.68 1.795-.679.698-1.814.698m18.517 0q-1.086 0-1.795-.698-.698-.709-.698-1.795v-15.588q0-3.589-1.824-5.49t-4.694-1.9q-3.046 0-5.025 2.065-1.988 2.066-1.988 5.267h-3.26q.06-3.473 1.494-6.17 1.445-2.686 3.938-4.209 2.503-1.513 5.655-1.513 3.143 0 5.568 1.406 2.416 1.417 3.774 4.103t1.358 6.441v15.588q0 1.087-.68 1.795-.678.698-1.823.698m43.903.165q-4.51 0-7.954-1.93-3.454-1.92-5.413-5.316-1.95-3.395-1.95-7.799 0-4.452 1.843-7.847 1.853-3.395 5.112-5.325t7.547-1.93q4.18 0 7.226 1.871 3.036 1.882 4.666 5.16 1.63 3.29 1.63 7.586 0 .922-.62 1.543-.622.63-1.66.63h-22.32v-4.025h22.378l-2.23 1.58q-.05-2.88-1.136-5.16-1.086-2.289-3.104-3.589-2.008-1.3-4.83-1.3-3.095 0-5.355 1.407-2.25 1.416-3.443 3.86t-1.193 5.54q0 3.093 1.377 5.51 1.387 2.424 3.803 3.83 2.425 1.416 5.626 1.416 1.736 0 3.608-.65 1.882-.659 2.968-1.522.757-.602 1.63-.63.863-.02 1.513.523.815.757.873 1.65.058.901-.757 1.551-1.852 1.465-4.597 2.415-2.736.95-5.238.95m32.145.001q-4.239 0-7.634-1.979-3.395-1.988-5.374-5.403-1.979-3.424-1.979-7.72 0-4.288 1.843-7.683t5.054-5.374q3.201-1.989 7.275-1.989 3.366 0 6.17 1.417 2.793 1.406 4.646 3.802v-15.21q0-1.145.698-1.824.708-.68 1.795-.68 1.144 0 1.852.68.7.68.7 1.823v25.152q-.05 4.23-2.038 7.654-1.98 3.424-5.374 5.383-3.395 1.95-7.634 1.95m0-4.452q2.94 0 5.22-1.387t3.607-3.803 1.33-5.46q0-3.037-1.33-5.433-1.329-2.386-3.608-3.773t-5.219-1.387q-2.823 0-5.16 1.387t-3.667 3.773q-1.329 2.396-1.329 5.432 0 3.046 1.33 5.461t3.666 3.803 5.16 1.387"/><rect width="48.479" height="40.68" x="747.694" y="738.257" fill="none" rx="0" ry="0" transform="matrix(.97 0 0 .97 39.336 43.87)"/><path fill="#fff9ef" d="M778.478 791.951q-.66 0-1.154-.466-.485-.475-.485-1.174v-25.627h3.28v25.627q0 .7-.457 1.174-.446.466-1.184.466m9.468-24.27h-18.935q-.66 0-1.076-.417t-.417-1.077q0-.669.417-1.086t1.076-.417h18.935q.698 0 1.115.417t.417 1.086q0 .66-.417 1.077t-1.115.417m1.493 24.27q-.902 0-1.358-.767-.455-.766-.067-1.6l9.98-23.784q.457-1.116 1.543-1.116 1.154 0 1.572 1.116l10.02 23.852q.35.834-.126 1.571-.466.728-1.378.728-.456 0-.873-.262t-.63-.747l-9.04-22.213h1.008l-9.108 22.213q-.214.524-.63.766-.418.243-.912.243m18.44-6.18h-16.413l1.29-2.754h13.87Z"/></g><path fill="transparent" stroke="transparent" stroke-width="2.695" d="M254.474 644.909h1495.525v210.182H254.474z"/></g></svg>